# Blender 4.2.2 LTS
# www.blender.org
mtllib bedsidedrawer.mtl
o Sink_door.002
v 0.025307 -0.033272 -0.402763
v 0.025307 -0.033272 0.455261
v -0.010253 -0.033272 -0.402763
v -0.010253 -0.033272 0.455261
v 0.025307 0.393448 -0.402763
v 0.025307 0.393448 0.455261
v -0.010253 0.393448 -0.402763
v -0.010253 0.393448 0.455261
vn -0.0000 -1.0000 -0.0000
vn -1.0000 -0.0000 -0.0000
vn -0.0000 1.0000 -0.0000
vn 1.0000 -0.0000 -0.0000
vn -0.0000 -0.0000 -1.0000
vn -0.0000 -0.0000 1.0000
vt 0.375000 0.000000
vt 0.625000 0.000000
vt 0.625000 0.250000
vt 0.375000 0.250000
vt 0.625000 0.500000
vt 0.375000 0.500000
vt 0.625000 0.750000
vt 0.375000 0.750000
vt 0.625000 1.000000
vt 0.375000 1.000000
vt 0.125000 0.500000
vt 0.125000 0.750000
vt 0.875000 0.500000
vt 0.875000 0.750000
s 0
f 1/1/1 2/2/1 4/3/1 3/4/1
f 3/4/2 4/3/2 8/5/2 7/6/2
f 7/6/3 8/5/3 6/7/3 5/8/3
f 5/8/4 6/7/4 2/9/4 1/10/4
f 3/11/5 7/6/5 5/8/5 1/12/5
f 8/5/6 4/13/6 2/14/6 6/7/6
o Sink_door.001
v 0.025307 0.433103 -0.396220
v 0.025307 0.458651 0.461424
v -0.010253 0.433103 -0.396220
v -0.010253 0.458651 0.461424
v 0.025307 0.859634 -0.408926
v 0.025307 0.885181 0.448718
v -0.010253 0.859634 -0.408926
v -0.010253 0.885181 0.448718
vn -0.0000 -0.9996 0.0298
vn -1.0000 -0.0000 -0.0000
vn -0.0000 0.9996 -0.0298
vn 1.0000 -0.0000 -0.0000
vn -0.0000 -0.0298 -0.9996
vn -0.0000 0.0298 0.9996
vt 0.375000 0.000000
vt 0.625000 0.000000
vt 0.625000 0.250000
vt 0.375000 0.250000
vt 0.625000 0.500000
vt 0.375000 0.500000
vt 0.625000 0.750000
vt 0.375000 0.750000
vt 0.625000 1.000000
vt 0.375000 1.000000
vt 0.125000 0.500000
vt 0.125000 0.750000
vt 0.875000 0.500000
vt 0.875000 0.750000
s 0
f 9/15/7 10/16/7 12/17/7 11/18/7
f 11/18/8 12/17/8 16/19/8 15/20/8
f 15/20/9 16/19/9 14/21/9 13/22/9
f 13/22/10 14/21/10 10/23/10 9/24/10
f 11/25/11 15/20/11 13/22/11 9/26/11
f 16/19/12 12/27/12 10/28/12 14/21/12
o knob
v 0.020384 0.340643 0.007470
v 0.056523 0.354525 0.007470
v 0.020384 0.340422 0.005147
v 0.056523 0.354037 0.000532
v 0.020384 0.339766 0.002913
v 0.056523 0.352592 -0.006138
v 0.020384 0.338702 0.000854
v 0.056523 0.350245 -0.012286
v 0.020384 0.337270 -0.000950
v 0.056523 0.347086 -0.017675
v 0.020384 0.335524 -0.002431
v 0.056523 0.343237 -0.022097
v 0.020384 0.333533 -0.003532
v 0.056523 0.338845 -0.025383
v 0.020384 0.331372 -0.004209
v 0.056523 0.334081 -0.027407
v 0.020384 0.329125 -0.004438
v 0.056523 0.329125 -0.028090
v 0.020384 0.326878 -0.004209
v 0.056523 0.324170 -0.027407
v 0.020384 0.324718 -0.003532
v 0.056523 0.319405 -0.025383
v 0.020384 0.322726 -0.002431
v 0.056523 0.315014 -0.022097
v 0.020384 0.320981 -0.000950
v 0.056523 0.311165 -0.017675
v 0.020384 0.319549 0.000854
v 0.056523 0.308006 -0.012286
v 0.020384 0.318484 0.002913
v 0.056523 0.305659 -0.006138
v 0.020384 0.317829 0.005147
v 0.056523 0.304213 0.000532
v 0.020384 0.317608 0.007470
v 0.056523 0.303725 0.007470
v 0.020384 0.317829 0.009793
v 0.056523 0.304213 0.014407
v 0.020384 0.318484 0.012027
v 0.056523 0.305659 0.021078
v 0.020384 0.319549 0.014085
v 0.056523 0.308006 0.027226
v 0.020384 0.320981 0.015890
v 0.056523 0.311165 0.032614
v 0.020384 0.322726 0.017371
v 0.056523 0.315014 0.037037
v 0.020384 0.324718 0.018471
v 0.056523 0.319405 0.040323
v 0.020384 0.326878 0.019149
v 0.056523 0.324170 0.042346
v 0.020384 0.329125 0.019378
v 0.056523 0.329125 0.043030
v 0.020384 0.331372 0.019149
v 0.056523 0.334081 0.042346
v 0.020384 0.333533 0.018471
v 0.056523 0.338845 0.040323
v 0.020384 0.335524 0.017371
v 0.056523 0.343237 0.037037
v 0.020384 0.337270 0.015890
v 0.056523 0.347086 0.032614
v 0.020384 0.338702 0.014085
v 0.056523 0.350245 0.027226
v 0.020384 0.339766 0.012027
v 0.056523 0.352592 0.021078
v 0.020384 0.340422 0.009793
v 0.056523 0.354037 0.014407
vn -0.3587 0.9307 -0.0713
vn -0.3710 0.9038 -0.2132
vn -0.3944 0.8485 -0.3527
vn -0.4264 0.7625 -0.4867
vn -0.4630 0.6434 -0.6097
vn -0.4988 0.4909 -0.7143
vn -0.5276 0.3087 -0.7914
vn -0.5437 0.1054 -0.8326
vn -0.5437 -0.1054 -0.8326
vn -0.5276 -0.3087 -0.7914
vn -0.4988 -0.4909 -0.7143
vn -0.4630 -0.6434 -0.6097
vn -0.4264 -0.7625 -0.4867
vn -0.3944 -0.8485 -0.3527
vn -0.3710 -0.9038 -0.2132
vn -0.3587 -0.9307 -0.0713
vn -0.3587 -0.9307 0.0713
vn -0.3710 -0.9038 0.2132
vn -0.3944 -0.8485 0.3527
vn -0.4264 -0.7625 0.4867
vn -0.4630 -0.6434 0.6097
vn -0.4988 -0.4909 0.7143
vn -0.5276 -0.3087 0.7914
vn -0.5437 -0.1054 0.8326
vn -0.5437 0.1054 0.8326
vn -0.5276 0.3087 0.7914
vn -0.4988 0.4909 0.7143
vn -0.4630 0.6434 0.6097
vn -0.4264 0.7625 0.4867
vn -0.3944 0.8485 0.3527
vn 1.0000 -0.0000 -0.0000
vn -0.3710 0.9038 0.2132
vn -0.3587 0.9307 0.0713
vn -1.0000 -0.0000 -0.0000
vt 1.000000 0.500000
vt 1.000000 1.000000
vt 0.968750 1.000000
vt 0.968750 0.500000
vt 0.937500 1.000000
vt 0.937500 0.500000
vt 0.906250 1.000000
vt 0.906250 0.500000
vt 0.875000 1.000000
vt 0.875000 0.500000
vt 0.843750 1.000000
vt 0.843750 0.500000
vt 0.812500 1.000000
vt 0.812500 0.500000
vt 0.781250 1.000000
vt 0.781250 0.500000
vt 0.750000 1.000000
vt 0.750000 0.500000
vt 0.718750 1.000000
vt 0.718750 0.500000
vt 0.687500 1.000000
vt 0.687500 0.500000
vt 0.656250 1.000000
vt 0.656250 0.500000
vt 0.625000 1.000000
vt 0.625000 0.500000
vt 0.593750 1.000000
vt 0.593750 0.500000
vt 0.562500 1.000000
vt 0.562500 0.500000
vt 0.531250 1.000000
vt 0.531250 0.500000
vt 0.500000 1.000000
vt 0.500000 0.500000
vt 0.468750 1.000000
vt 0.468750 0.500000
vt 0.437500 1.000000
vt 0.437500 0.500000
vt 0.406250 1.000000
vt 0.406250 0.500000
vt 0.375000 1.000000
vt 0.375000 0.500000
vt 0.343750 1.000000
vt 0.343750 0.500000
vt 0.312500 1.000000
vt 0.312500 0.500000
vt 0.281250 1.000000
vt 0.281250 0.500000
vt 0.250000 1.000000
vt 0.250000 0.500000
vt 0.218750 1.000000
vt 0.218750 0.500000
vt 0.187500 1.000000
vt 0.187500 0.500000
vt 0.156250 1.000000
vt 0.156250 0.500000
vt 0.125000 1.000000
vt 0.125000 0.500000
vt 0.093750 1.000000
vt 0.093750 0.500000
vt 0.062500 1.000000
vt 0.062500 0.500000
vt 0.296822 0.485388
vt 0.250000 0.490000
vt 0.203178 0.485388
vt 0.158156 0.471731
vt 0.116663 0.449553
vt 0.080294 0.419706
vt 0.050447 0.383337
vt 0.028269 0.341844
vt 0.014612 0.296822
vt 0.010000 0.250000
vt 0.014612 0.203178
vt 0.028269 0.158156
vt 0.050447 0.116663
vt 0.080294 0.080294
vt 0.116663 0.050447
vt 0.158156 0.028269
vt 0.203178 0.014612
vt 0.250000 0.010000
vt 0.296822 0.014612
vt 0.341844 0.028269
vt 0.383337 0.050447
vt 0.419706 0.080294
vt 0.449553 0.116663
vt 0.471731 0.158156
vt 0.485388 0.203178
vt 0.490000 0.250000
vt 0.485388 0.296822
vt 0.471731 0.341844
vt 0.449553 0.383337
vt 0.419706 0.419706
vt 0.383337 0.449553
vt 0.341844 0.471731
vt 0.031250 1.000000
vt 0.031250 0.500000
vt 0.000000 1.000000
vt 0.000000 0.500000
vt 0.750000 0.490000
vt 0.796822 0.485388
vt 0.841844 0.471731
vt 0.883337 0.449553
vt 0.919706 0.419706
vt 0.949553 0.383337
vt 0.971731 0.341844
vt 0.985388 0.296822
vt 0.990000 0.250000
vt 0.985388 0.203178
vt 0.971731 0.158156
vt 0.949553 0.116663
vt 0.919706 0.080294
vt 0.883337 0.050447
vt 0.841844 0.028269
vt 0.796822 0.014612
vt 0.750000 0.010000
vt 0.703178 0.014612
vt 0.658156 0.028269
vt 0.616663 0.050447
vt 0.580294 0.080294
vt 0.550447 0.116663
vt 0.528269 0.158156
vt 0.514612 0.203178
vt 0.510000 0.250000
vt 0.514612 0.296822
vt 0.528269 0.341844
vt 0.550447 0.383337
vt 0.580294 0.419706
vt 0.616663 0.449553
vt 0.658156 0.471731
vt 0.703178 0.485388
s 0
f 17/29/13 18/30/13 20/31/13 19/32/13
f 19/32/14 20/31/14 22/33/14 21/34/14
f 21/34/15 22/33/15 24/35/15 23/36/15
f 23/36/16 24/35/16 26/37/16 25/38/16
f 25/38/17 26/37/17 28/39/17 27/40/17
f 27/40/18 28/39/18 30/41/18 29/42/18
f 29/42/19 30/41/19 32/43/19 31/44/19
f 31/44/20 32/43/20 34/45/20 33/46/20
f 33/46/21 34/45/21 36/47/21 35/48/21
f 35/48/22 36/47/22 38/49/22 37/50/22
f 37/50/23 38/49/23 40/51/23 39/52/23
f 39/52/24 40/51/24 42/53/24 41/54/24
f 41/54/25 42/53/25 44/55/25 43/56/25
f 43/56/26 44/55/26 46/57/26 45/58/26
f 45/58/27 46/57/27 48/59/27 47/60/27
f 47/60/28 48/59/28 50/61/28 49/62/28
f 49/62/29 50/61/29 52/63/29 51/64/29
f 51/64/30 52/63/30 54/65/30 53/66/30
f 53/66/31 54/65/31 56/67/31 55/68/31
f 55/68/32 56/67/32 58/69/32 57/70/32
f 57/70/33 58/69/33 60/71/33 59/72/33
f 59/72/34 60/71/34 62/73/34 61/74/34
f 61/74/35 62/73/35 64/75/35 63/76/35
f 63/76/36 64/75/36 66/77/36 65/78/36
f 65/78/37 66/77/37 68/79/37 67/80/37
f 67/80/38 68/79/38 70/81/38 69/82/38
f 69/82/39 70/81/39 72/83/39 71/84/39
f 71/84/40 72/83/40 74/85/40 73/86/40
f 73/86/41 74/85/41 76/87/41 75/88/41
f 75/88/42 76/87/42 78/89/42 77/90/42
f 20/91/43 18/92/43 80/93/43 78/94/43 76/95/43 74/96/43 72/97/43 70/98/43 68/99/43 66/100/43 64/101/43 62/102/43 60/103/43 58/104/43 56/105/43 54/106/43 52/107/43 50/108/43 48/109/43 46/110/43 44/111/43 42/112/43 40/113/43 38/114/43 36/115/43 34/116/43 32/117/43 30/118/43 28/119/43 26/120/43 24/121/43 22/122/43
f 77/90/44 78/89/44 80/123/44 79/124/44
f 79/124/45 80/123/45 18/125/45 17/126/45
f 17/127/46 19/128/46 21/129/46 23/130/46 25/131/46 27/132/46 29/133/46 31/134/46 33/135/46 35/136/46 37/137/46 39/138/46 41/139/46 43/140/46 45/141/46 47/142/46 49/143/46 51/144/46 53/145/46 55/146/46 57/147/46 59/148/46 61/149/46 63/150/46 65/151/46 67/152/46 69/153/46 71/154/46 73/155/46 75/156/46 77/157/46 79/158/46
o Cube.014
v -0.014740 -0.169089 0.550779
v -0.014740 0.959976 0.550779
v -0.654820 -0.169089 0.550779
v -0.654820 0.959976 0.550779
v -0.014740 -0.169089 -0.516021
v -0.014740 0.959976 -0.516021
v -0.654820 -0.169089 -0.516021
v -0.654820 0.959976 -0.516021
vn -0.0000 -0.0000 1.0000
vn -1.0000 -0.0000 -0.0000
vn -0.0000 -0.0000 -1.0000
vn 1.0000 -0.0000 -0.0000
vn -0.0000 -1.0000 -0.0000
vn -0.0000 1.0000 -0.0000
vt 0.375000 0.000000
vt 0.625000 0.000000
vt 0.625000 0.250000
vt 0.375000 0.250000
vt 0.625000 0.500000
vt 0.375000 0.500000
vt 0.625000 0.750000
vt 0.375000 0.750000
vt 0.625000 1.000000
vt 0.375000 1.000000
vt 0.125000 0.500000
vt 0.125000 0.750000
vt 0.875000 0.500000
vt 0.875000 0.750000
s 0
f 81/159/47 82/160/47 84/161/47 83/162/47
f 83/162/48 84/161/48 88/163/48 87/164/48
f 87/164/49 88/163/49 86/165/49 85/166/49
f 85/166/50 86/165/50 82/167/50 81/168/50
f 83/169/51 87/164/51 85/166/51 81/170/51
f 88/163/52 84/171/52 82/172/52 86/165/52
o knob.002
v 0.020384 0.812931 0.016315
v 0.056523 0.826814 0.016315
v 0.020384 0.812710 0.013992
v 0.056523 0.826326 0.009378
v 0.020384 0.812055 0.011758
v 0.056523 0.824880 0.002707
v 0.020384 0.810990 0.009699
v 0.056523 0.822533 -0.003441
v 0.020384 0.809558 0.007895
v 0.056523 0.819374 -0.008830
v 0.020384 0.807813 0.006414
v 0.056523 0.815525 -0.013252
v 0.020384 0.805821 0.005313
v 0.056523 0.811134 -0.016538
v 0.020384 0.803661 0.004636
v 0.056523 0.806369 -0.018562
v 0.020384 0.801414 0.004407
v 0.056523 0.801414 -0.019245
v 0.020384 0.799167 0.004636
v 0.056523 0.796458 -0.018562
v 0.020384 0.797006 0.005313
v 0.056523 0.791693 -0.016538
v 0.020384 0.795015 0.006414
v 0.056523 0.787302 -0.013252
v 0.020384 0.793269 0.007895
v 0.056523 0.783453 -0.008830
v 0.020384 0.791837 0.009699
v 0.056523 0.780294 -0.003441
v 0.020384 0.790773 0.011758
v 0.056523 0.777947 0.002707
v 0.020384 0.790117 0.013992
v 0.056523 0.776502 0.009378
v 0.020384 0.789896 0.016315
v 0.056523 0.776014 0.016315
v 0.020384 0.790117 0.018638
v 0.056523 0.776502 0.023252
v 0.020384 0.790773 0.020872
v 0.056523 0.777947 0.029923
v 0.020384 0.791837 0.022931
v 0.056523 0.780294 0.036071
v 0.020384 0.793269 0.024735
v 0.056523 0.783453 0.041460
v 0.020384 0.795015 0.026216
v 0.056523 0.787302 0.045882
v 0.020384 0.797006 0.027317
v 0.056523 0.791693 0.049168
v 0.020384 0.799167 0.027994
v 0.056523 0.796458 0.051192
v 0.020384 0.801414 0.028223
v 0.056523 0.801414 0.051875
v 0.020384 0.803661 0.027994
v 0.056523 0.806369 0.051192
v 0.020384 0.805821 0.027317
v 0.056523 0.811134 0.049168
v 0.020384 0.807813 0.026216
v 0.056523 0.815525 0.045882
v 0.020384 0.809558 0.024735
v 0.056523 0.819374 0.041460
v 0.020384 0.810990 0.022931
v 0.056523 0.822533 0.036071
v 0.020384 0.812055 0.020872
v 0.056523 0.824880 0.029923
v 0.020384 0.812710 0.018638
v 0.056523 0.826326 0.023252
vn -0.3587 0.9307 -0.0713
vn -0.3710 0.9038 -0.2132
vn -0.3944 0.8485 -0.3527
vn -0.4264 0.7625 -0.4867
vn -0.4630 0.6434 -0.6097
vn -0.4988 0.4909 -0.7143
vn -0.5276 0.3087 -0.7914
vn -0.5437 0.1054 -0.8326
vn -0.5437 -0.1054 -0.8326
vn -0.5276 -0.3087 -0.7914
vn -0.4988 -0.4909 -0.7143
vn -0.4630 -0.6434 -0.6097
vn -0.4264 -0.7625 -0.4867
vn -0.3944 -0.8485 -0.3527
vn -0.3710 -0.9038 -0.2132
vn -0.3587 -0.9307 -0.0713
vn -0.3587 -0.9307 0.0713
vn -0.3710 -0.9038 0.2132
vn -0.3944 -0.8485 0.3527
vn -0.4264 -0.7625 0.4867
vn -0.4630 -0.6434 0.6097
vn -0.4988 -0.4909 0.7143
vn -0.5276 -0.3087 0.7914
vn -0.5437 -0.1054 0.8326
vn -0.5437 0.1054 0.8326
vn -0.5276 0.3087 0.7914
vn -0.4988 0.4909 0.7143
vn -0.4630 0.6434 0.6097
vn -0.4264 0.7625 0.4867
vn -0.3944 0.8485 0.3527
vn 1.0000 -0.0000 -0.0000
vn -0.3710 0.9038 0.2132
vn -0.3587 0.9307 0.0713
vn -1.0000 -0.0000 -0.0000
vt 1.000000 0.500000
vt 1.000000 1.000000
vt 0.968750 1.000000
vt 0.968750 0.500000
vt 0.937500 1.000000
vt 0.937500 0.500000
vt 0.906250 1.000000
vt 0.906250 0.500000
vt 0.875000 1.000000
vt 0.875000 0.500000
vt 0.843750 1.000000
vt 0.843750 0.500000
vt 0.812500 1.000000
vt 0.812500 0.500000
vt 0.781250 1.000000
vt 0.781250 0.500000
vt 0.750000 1.000000
vt 0.750000 0.500000
vt 0.718750 1.000000
vt 0.718750 0.500000
vt 0.687500 1.000000
vt 0.687500 0.500000
vt 0.656250 1.000000
vt 0.656250 0.500000
vt 0.625000 1.000000
vt 0.625000 0.500000
vt 0.593750 1.000000
vt 0.593750 0.500000
vt 0.562500 1.000000
vt 0.562500 0.500000
vt 0.531250 1.000000
vt 0.531250 0.500000
vt 0.500000 1.000000
vt 0.500000 0.500000
vt 0.468750 1.000000
vt 0.468750 0.500000
vt 0.437500 1.000000
vt 0.437500 0.500000
vt 0.406250 1.000000
vt 0.406250 0.500000
vt 0.375000 1.000000
vt 0.375000 0.500000
vt 0.343750 1.000000
vt 0.343750 0.500000
vt 0.312500 1.000000
vt 0.312500 0.500000
vt 0.281250 1.000000
vt 0.281250 0.500000
vt 0.250000 1.000000
vt 0.250000 0.500000
vt 0.218750 1.000000
vt 0.218750 0.500000
vt 0.187500 1.000000
vt 0.187500 0.500000
vt 0.156250 1.000000
vt 0.156250 0.500000
vt 0.125000 1.000000
vt 0.125000 0.500000
vt 0.093750 1.000000
vt 0.093750 0.500000
vt 0.062500 1.000000
vt 0.062500 0.500000
vt 0.296822 0.485388
vt 0.250000 0.490000
vt 0.203178 0.485388
vt 0.158156 0.471731
vt 0.116663 0.449553
vt 0.080294 0.419706
vt 0.050447 0.383337
vt 0.028269 0.341844
vt 0.014612 0.296822
vt 0.010000 0.250000
vt 0.014612 0.203178
vt 0.028269 0.158156
vt 0.050447 0.116663
vt 0.080294 0.080294
vt 0.116663 0.050447
vt 0.158156 0.028269
vt 0.203178 0.014612
vt 0.250000 0.010000
vt 0.296822 0.014612
vt 0.341844 0.028269
vt 0.383337 0.050447
vt 0.419706 0.080294
vt 0.449553 0.116663
vt 0.471731 0.158156
vt 0.485388 0.203178
vt 0.490000 0.250000
vt 0.485388 0.296822
vt 0.471731 0.341844
vt 0.449553 0.383337
vt 0.419706 0.419706
vt 0.383337 0.449553
vt 0.341844 0.471731
vt 0.031250 1.000000
vt 0.031250 0.500000
vt 0.000000 1.000000
vt 0.000000 0.500000
vt 0.750000 0.490000
vt 0.796822 0.485388
vt 0.841844 0.471731
vt 0.883337 0.449553
vt 0.919706 0.419706
vt 0.949553 0.383337
vt 0.971731 0.341844
vt 0.985388 0.296822
vt 0.990000 0.250000
vt 0.985388 0.203178
vt 0.971731 0.158156
vt 0.949553 0.116663
vt 0.919706 0.080294
vt 0.883337 0.050447
vt 0.841844 0.028269
vt 0.796822 0.014612
vt 0.750000 0.010000
vt 0.703178 0.014612
vt 0.658156 0.028269
vt 0.616663 0.050447
vt 0.580294 0.080294
vt 0.550447 0.116663
vt 0.528269 0.158156
vt 0.514612 0.203178
vt 0.510000 0.250000
vt 0.514612 0.296822
vt 0.528269 0.341844
vt 0.550447 0.383337
vt 0.580294 0.419706
vt 0.616663 0.449553
vt 0.658156 0.471731
vt 0.703178 0.485388
s 0
f 89/173/53 90/174/53 92/175/53 91/176/53
f 91/176/54 92/175/54 94/177/54 93/178/54
f 93/178/55 94/177/55 96/179/55 95/180/55
f 95/180/56 96/179/56 98/181/56 97/182/56
f 97/182/57 98/181/57 100/183/57 99/184/57
f 99/184/58 100/183/58 102/185/58 101/186/58
f 101/186/59 102/185/59 104/187/59 103/188/59
f 103/188/60 104/187/60 106/189/60 105/190/60
f 105/190/61 106/189/61 108/191/61 107/192/61
f 107/192/62 108/191/62 110/193/62 109/194/62
f 109/194/63 110/193/63 112/195/63 111/196/63
f 111/196/64 112/195/64 114/197/64 113/198/64
f 113/198/65 114/197/65 116/199/65 115/200/65
f 115/200/66 116/199/66 118/201/66 117/202/66
f 117/202/67 118/201/67 120/203/67 119/204/67
f 119/204/68 120/203/68 122/205/68 121/206/68
f 121/206/69 122/205/69 124/207/69 123/208/69
f 123/208/70 124/207/70 126/209/70 125/210/70
f 125/210/71 126/209/71 128/211/71 127/212/71
f 127/212/72 128/211/72 130/213/72 129/214/72
f 129/214/73 130/213/73 132/215/73 131/216/73
f 131/216/74 132/215/74 134/217/74 133/218/74
f 133/218/75 134/217/75 136/219/75 135/220/75
f 135/220/76 136/219/76 138/221/76 137/222/76
f 137/222/77 138/221/77 140/223/77 139/224/77
f 139/224/78 140/223/78 142/225/78 141/226/78
f 141/226/79 142/225/79 144/227/79 143/228/79
f 143/228/80 144/227/80 146/229/80 145/230/80
f 145/230/81 146/229/81 148/231/81 147/232/81
f 147/232/82 148/231/82 150/233/82 149/234/82
f 92/235/83 90/236/83 152/237/83 150/238/83 148/239/83 146/240/83 144/241/83 142/242/83 140/243/83 138/244/83 136/245/83 134/246/83 132/247/83 130/248/83 128/249/83 126/250/83 124/251/83 122/252/83 120/253/83 118/254/83 116/255/83 114/256/83 112/257/83 110/258/83 108/259/83 106/260/83 104/261/83 102/262/83 100/263/83 98/264/83 96/265/83 94/266/83
f 149/234/84 150/233/84 152/267/84 151/268/84
f 151/268/85 152/267/85 90/269/85 89/270/85
f 89/271/86 91/272/86 93/273/86 95/274/86 97/275/86 99/276/86 101/277/86 103/278/86 105/279/86 107/280/86 109/281/86 111/282/86 113/283/86 115/284/86 117/285/86 119/286/86 121/287/86 123/288/86 125/289/86 127/290/86 129/291/86 131/292/86 133/293/86 135/294/86 137/295/86 139/296/86 141/297/86 143/298/86 145/299/86 147/300/86 149/301/86 151/302/86
o Cube.001
v -0.680220 0.993727 0.578040
v -0.680220 0.959488 0.578040
v -0.680220 0.993727 -0.537275
v -0.680220 0.959488 -0.537275
v 0.006313 0.993727 0.578040
v 0.006313 0.959488 0.578040
v 0.006313 0.993727 -0.537275
v 0.006313 0.959488 -0.537275
vn 1.0000 -0.0000 -0.0000
vn -0.0000 -0.0000 1.0000
vn -1.0000 -0.0000 -0.0000
vn -0.0000 -0.0000 -1.0000
vn -0.0000 -1.0000 -0.0000
vn -0.0000 1.0000 -0.0000
vt 0.375000 0.000000
vt 0.625000 0.000000
vt 0.625000 0.250000
vt 0.375000 0.250000
vt 0.625000 0.500000
vt 0.375000 0.500000
vt 0.625000 0.750000
vt 0.375000 0.750000
vt 0.625000 1.000000
vt 0.375000 1.000000
vt 0.125000 0.500000
vt 0.125000 0.750000
vt 0.875000 0.500000
vt 0.875000 0.750000
s 0
f 153/303/87 154/304/87 156/305/87 155/306/87
f 155/306/88 156/305/88 160/307/88 159/308/88
f 159/308/89 160/307/89 158/309/89 157/310/89
f 157/310/90 158/309/90 154/311/90 153/312/90
f 155/313/91 159/308/91 157/310/91 153/314/91
f 160/307/92 156/315/92 154/316/92 158/309/92
