g ____01
v 0.17992 0.00651765 0.00882334 0.494118 0.494118 0.52549
v 0.179436 0.0457384 0.00882334 0.494118 0.494118 0.52549
v 0 0.0435245 0.00882334 0.494118 0.494118 0.52549
v 6.93889e-18 0.00429779 0.00882334 0.494118 0.494118 0.52549
v 1.38778e-17 0.00429779 0.0409323 0.494118 0.494118 0.52549
v 0.17992 0.00651765 0.0409323 0.494118 0.494118 0.52549
v 0 0.0435245 0.0409323 0.494118 0.494118 0.52549
v 0.179436 0.0457384 0.0409323 0.494118 0.494118 0.52549
v 0 0 0 0.494118 0.494118 0.52549
v 0 0 0.05 0.494118 0.494118 0.52549
v 0 0.109948 0.05 0.494118 0.494118 0.52549
v 0 0.109948 0 0.494118 0.494118 0.52549
v 0.178643 0.109948 0 0.494118 0.494118 0.52549
v 0.178643 0.109948 0.05 0.494118 0.494118 0.52549
v 0.18 0 0.05 0.494118 0.494118 0.52549
v 0.18 0 0 0.494118 0.494118 0.52549
vn 0 -0 1
vn -0.0123372 0.999924 5.40221e-17
vn -0 0 -1
vn 0.0123372 -0.999924 0
vn -1 0 0
vn 0.999924 0.0123372 -0
vn -0 -0 -1
vn 0 0 1
vn 0 1 0
vn -0 -1 -0
vt -0.29022 -0.0160326
vt -0.289736 0.0231881
vt -0.1103 0.0209742
vt -0.1103 -0.0182524
vt 0.29 -0.0160545
vt 0.110067 -0.0160545
vt 0.110067 0.0160545
vt 0.29 0.0160545
vt -0.29022 -0.0160326
vt -0.1103 -0.0182524
vt -0.1103 0.0209742
vt -0.289736 0.0231881
vt 0.29 0.0160545
vt 0.110551 0.0160545
vt 0.110551 -0.0160545
vt 0.29 -0.0160545
vt -0.05 -0.0549741
vt -0.0411767 -0.0506764
vt -0.0411767 -0.0114497
vt 0 -0.0549741
vt -0.00906774 -0.0506764
vt 0 0.0549741
vt -0.00906774 -0.0114497
vt -0.05 0.0549741
vt -0.0549783 -0.05
vt -0.0549783 0
vt 0.00923649 -0.00906774
vt 0.0549783 0
vt 0.0484602 -0.00906774
vt 0.0549783 -0.05
vt 0.0484602 -0.0411767
vt 0.00923649 -0.0411767
vt 0 0
vt 0 0.109948
vt 0.178643 0.109948
vt 0.18 0
vt 0 0
vt 0.18 0
vt 0.178643 0.109948
vt 0 0.109948
vt 0 0.0893217
vt -0.05 0.0893217
vt -0.05 -0.0893217
vt 0 -0.0893217
vt 0 -0.09
vt -0.05 -0.09
vt -0.05 0.09
vt 0 0.09
f 1/1/1 2/2/1 3/3/1
f 3/3/1 4/4/1 1/1/1
f 1/5/2 4/6/2 5/7/2
f 5/7/2 6/8/2 1/5/2
f 6/9/3 5/10/3 7/11/3
f 7/11/3 8/12/3 6/9/3
f 8/13/4 7/14/4 3/15/4
f 3/15/4 2/16/4 8/13/4
f 9/17/5 4/18/5 3/19/5
f 9/17/5 10/20/5 5/21/5
f 5/21/5 4/18/5 9/17/5
f 10/20/5 11/22/5 7/23/5
f 12/24/5 3/19/5 7/23/5
f 7/23/5 5/21/5 10/20/5
f 3/19/5 12/24/5 9/17/5
f 7/23/5 11/22/5 12/24/5
f 13/25/6 14/26/6 8/27/6
f 15/28/6 6/29/6 8/27/6
f 8/27/6 14/26/6 15/28/6
f 16/30/6 1/31/6 6/29/6
f 6/29/6 15/28/6 16/30/6
f 16/30/6 13/25/6 2/32/6
f 2/32/6 1/31/6 16/30/6
f 8/27/6 2/32/6 13/25/6
f 9/33/7 12/34/7 13/35/7
f 13/35/7 16/36/7 9/33/7
f 10/37/8 15/38/8 14/39/8
f 14/39/8 11/40/8 10/37/8
f 14/41/9 13/42/9 12/43/9
f 12/43/9 11/44/9 14/41/9
f 10/45/10 9/46/10 16/47/10
f 16/47/10 15/48/10 10/45/10
