g ____01
v 0.03 0.03 0.03 0.494118 0.494118 0.52549
v 0.05 0.03 0.03 0.494118 0.494118 0.52549
v 0.05 0.175 0.03 0.494118 0.494118 0.52549
v 0.03 0.175 0.03 0.494118 0.494118 0.52549
v 0.03 0.03 0.11 0.494118 0.494118 0.52549
v 0.05 0.03 0.11 0.494118 0.494118 0.52549
v 0.03 0.175 0.11 0.494118 0.494118 0.52549
v 0.05 0.175 0.11 0.494118 0.494118 0.52549
v 0.13 0.19 0.11 0.494118 0.494118 0.52549
v 0.085 0.175 0.11 0.494118 0.494118 0.52549
v 0.085 0.03 0.11 0.494118 0.494118 0.52549
v 0 0.19 0.11 0.494118 0.494118 0.52549
v 0 0.01 0.11 0.494118 0.494118 0.52549
v 0.13 0.01 0.11 0.494118 0.494118 0.52549
v 0.105 0.03 0.11 0.494118 0.494118 0.52549
v 0.105 0.175 0.11 0.494118 0.494118 0.52549
v 0.085 0.03 0.03 0.494118 0.494118 0.52549
v 0.105 0.03 0.03 0.494118 0.494118 0.52549
v 0.105 0.175 0.03 0.494118 0.494118 0.52549
v 0.085 0.175 0.03 0.494118 0.494118 0.52549
v 0 0 0.1 0.494118 0.494118 0.52549
v 0.13 0 0.1 0.494118 0.494118 0.52549
v 0.13 0.2 0.1 0.494118 0.494118 0.52549
v 0 0.2 0.1 0.494118 0.494118 0.52549
v 0 0.2 0 0.494118 0.494118 0.52549
v 0 0 0 0.494118 0.494118 0.52549
v 0.13 0 0 0.494118 0.494118 0.52549
v 0.13 0.2 0 0.494118 0.494118 0.52549
vn 0 0 1
vn -0 1 -0
vn 1 4.78544e-17 -0
vn 0 -1 0
vn -1 -4.78544e-17 0
vn 0 0 1
vn 1.73472e-16 1 -0
vn 1 9.57089e-17 -0
vn 0 -1 0
vn -1 -9.57089e-17 0
vn 0 -0.707107 0.707107
vn -0 0.707107 0.707107
vn -1 0 0
vn 1 -0 -0
vn -0 -0 -1
vn 0 1 0
vn -0 -1 -0
vt 0.03 0.03
vt 0.05 0.03
vt 0.05 0.175
vt 0.03 0.175
vt -0 -0.01
vt -0.08 -0.01
vt -0.08 0.01
vt 0 0.01
vt -0.0725 0
vt -0.0725 0.08
vt 0.0725 0.08
vt 0.0725 0
vt 0 0.01
vt -0.08 0.01
vt -0.08 -0.01
vt -0 -0.01
vt 0.0725 0
vt 0.0725 0.08
vt -0.0725 0.08
vt -0.0725 0
vt 0.13 0.19
vt 0.05 0.175
vt 0.085 0.175
vt 0.05 0.03
vt 0.085 0.03
vt 0 0.19
vt 0.03 0.175
vt 0 0.01
vt 0.03 0.03
vt 0.13 0.01
vt 0.105 0.03
vt 0.105 0.175
vt 0.01 0
vt 0.01 0.08
vt -0.01 0.08
vt -0.01 0
vt 0.085 0.03
vt 0.105 0.03
vt 0.105 0.175
vt 0.085 0.175
vt 0.0725 0
vt 0.0725 0.08
vt -0.0725 0.08
vt -0.0725 0
vt 0 0.0075
vt -0.08 0.0075
vt -0.08 -0.0125
vt -0 -0.0125
vt 0.0725 0
vt 0.0725 0.08
vt -0.0725 0.08
vt -0.0725 0
vt -0.13 3.6799e-18
vt 0 3.6799e-18
vt -0 0.0141421
vt -0.13 0.0141421
vt 0.065 0
vt -0.065 0
vt -0.065 0.0141421
vt 0.065 0.0141421
vt -0.11 0.1
vt -0.01 -0.1
vt 0 -0.09
vt -0.11 -0.1
vt 0 0.09
vt -0.01 0.1
vt -0.11 -0.1
vt -0.11 0.1
vt 0 0.09
vt 0 -0.09
vt -0.01 0.1
vt -0.01 -0.1
vt 0.13 0.2
vt 0.13 0
vt 0 0
vt 0 0.2
vt -0.11 0.065
vt -0.11 -0.065
vt -0.01 -0.065
vt -0.01 0.065
vt -0.11 -0.065
vt -0.11 0.065
vt -0.01 0.065
vt -0.01 -0.065
f 1/1/1 2/2/1 3/3/1
f 3/3/1 4/4/1 1/1/1
f 1/5/2 5/6/2 6/7/2
f 6/7/2 2/8/2 1/5/2
f 4/9/3 7/10/3 5/11/3
f 5/11/3 1/12/3 4/9/3
f 3/13/4 8/14/4 7/15/4
f 7/15/4 4/16/4 3/13/4
f 2/17/5 6/18/5 8/19/5
f 8/19/5 3/20/5 2/17/5
f 9/21/6 8/22/6 10/23/6
f 6/24/6 11/25/6 10/23/6
f 12/26/6 7/27/6 8/22/6
f 12/26/6 13/28/6 5/29/6
f 10/23/6 8/22/6 6/24/6
f 14/30/6 15/31/6 11/25/6
f 5/29/6 7/27/6 12/26/6
f 13/28/6 14/30/6 6/24/6
f 11/25/6 6/24/6 14/30/6
f 9/21/6 16/32/6 15/31/6
f 6/24/6 5/29/6 13/28/6
f 15/31/6 14/30/6 9/21/6
f 10/23/6 16/32/6 9/21/6
f 8/22/6 9/21/6 12/26/6
f 17/33/7 11/34/7 15/35/7
f 15/35/7 18/36/7 17/33/7
f 17/37/6 18/38/6 19/39/6
f 19/39/6 20/40/6 17/37/6
f 20/41/8 10/42/8 11/43/8
f 11/43/8 17/44/8 20/41/8
f 19/45/9 16/46/9 10/47/9
f 10/47/9 20/48/9 19/45/9
f 18/49/10 15/50/10 16/51/10
f 16/51/10 19/52/10 18/49/10
f 14/53/11 13/54/11 21/55/11
f 21/55/11 22/56/11 14/53/11
f 23/57/12 24/58/12 12/59/12
f 12/59/12 9/60/12 23/57/12
f 25/61/13 21/62/13 13/63/13
f 25/61/13 26/64/13 21/62/13
f 13/63/13 12/65/13 25/61/13
f 12/65/13 24/66/13 25/61/13
f 27/67/14 28/68/14 9/69/14
f 9/69/14 14/70/14 27/67/14
f 28/68/14 23/71/14 9/69/14
f 14/70/14 22/72/14 27/67/14
f 28/73/15 27/74/15 26/75/15
f 26/75/15 25/76/15 28/73/15
f 28/77/16 25/78/16 24/79/16
f 24/79/16 23/80/16 28/77/16
f 26/81/17 27/82/17 22/83/17
f 22/83/17 21/84/17 26/81/17
